<?xml version="1.0" encoding="utf-8"?>
<!-- Generator: Adobe Illustrator 17.0.0, SVG Export Plug-In . SVG Version: 6.00 Build 0)  -->
<!DOCTYPE svg PUBLIC "-//W3C//DTD SVG 1.1//EN" "http://www.w3.org/Graphics/SVG/1.1/DTD/svg11.dtd">
<svg version="1.1" id="Layer_1" xmlns="http://www.w3.org/2000/svg" xmlns:xlink="http://www.w3.org/1999/xlink" x="0px" y="0px"
	 width="300px" height="200px" viewBox="0 0 300 200" enable-background="new 0 0 300 200" xml:space="preserve">
<g>
	<path fill="#333333" d="M256.898,108.232c0-2.581,0-4.939,0-7.531c1.881,0,3.72,0.009,5.559-0.002
		c2.827-0.016,4.726-1.626,4.743-4.004c0.017-2.377-1.897-4.028-4.715-4.047c-1.807-0.013-3.614-0.002-5.541-0.002
		c0-2.545,0-4.999,0-7.621c4.84-0.338,9.607-0.313,13.299,3.608c3.225,3.424,4.074,7.456,2.572,11.918
		c-0.358,1.065-0.98,2.041-1.296,2.682c1.136,2.303,2.561,4.299,3.13,6.514c1.707,6.636-3.005,13.175-10.041,14.046
		c-2.487,0.308-5.044,0.049-7.677,0.049c0-2.429,0-4.885,0-7.591c2.095,0,4.192,0.04,6.286-0.012
		c1.922-0.048,3.381-1.253,3.833-3.037c0.418-1.648-0.226-3.44-1.753-4.266c-0.781-0.422-1.75-0.625-2.648-0.674
		C260.797,108.162,258.936,108.232,256.898,108.232z"/>
	<path fill="#333333" d="M146.99,125.034c-3.523,0-6.809,0-10.264,0c0-3.081-0.077-6.529,0.049-10.579
		c0.1-5.039-0.036-4.937-1.417-7.197c-3.85-6.302-8.547-14.521-12.39-21.074c3.485,0,6.799,0,10.267,0
		c2.969,5.057,6.001,10.223,9.034,15.388c0.864,1.471,3.385,6.129,4.271,7.486c0.537,0.904,0.329,1.106,0.497,4.394
		C147.038,117.375,146.99,121.086,146.99,125.034z"/>
	<path fill="#333333" d="M207.951,123.929c-3.145,0-6.182,0-9.462,0c4.831-13.067,9.616-26.008,14.403-38.958
		c3.164,0,6.197,0,9.462,0C217.528,98.028,212.741,110.974,207.951,123.929z"/>
	<path fill="#333333" d="M229.502,123.9c-0.889-2.361-1.759-4.673-2.652-7.043c-4.102,0-8.126,0-12.406,0
		c1.056-2.847,2.049-5.525,3.091-8.334c2.037,0,4.029,0,6.25,0c-0.954-2.583-1.845-4.94-2.684-7.315
		c-0.18-0.509-0.378-1.156-0.218-1.619c1.392-4.026,2.864-8.025,4.465-12.452c4.613,12.475,9.079,24.551,13.596,36.763
		C235.72,123.9,232.691,123.9,229.502,123.9z"/>
	<path fill="#333333" d="M79.204,123.924c-2.913,0-5.693,0-8.606,0c0-12.955,0-25.892,0-38.92c2.856,0,5.672,0,8.606,0
		C79.204,97.969,79.204,110.869,79.204,123.924z"/>
	<path fill="#333333" d="M62.949,97.345c-3.126,0-9.806-0.024-9.806-0.024s-0.283-0.265-0.556-0.529
		c-6.264-6.05-16.564-2.994-18.615,5.284c-0.036,0.145-0.127,0.276-0.215,0.461c-2.871,0-5.752,0-8.63,0
		c-0.299-7.696,7.632-16.084,16.332-17.346C50.862,83.827,60.897,89.445,62.949,97.345z"/>
	<path fill="#333333" d="M62.976,111.445c-1.608,7.258-11.056,13.102-19.966,12.484c-9.377-0.65-17.226-8.275-18.01-17.615
		c2.869,0,5.732,0,8.724,0c0.088,0.237,0.228,0.554,0.325,0.883c2.493,8.419,12.244,11.019,18.665,4.982
		c0.321-0.301,0.626-0.702,0.626-0.702S59.908,111.445,62.976,111.445z"/>
	<path fill="#333333" d="M245.699,85.001c2.519,0,4.97,0,7.507,0c0,12.981,0,25.874,0,38.874c-2.493,0-4.945,0-7.507,0
		C245.699,110.976,245.699,98.08,245.699,85.001z"/>
	<path fill="#333333" d="M86.079,93.078c0-2.739,0-5.354,0-8.067c10.53,0,20.987,0,31.571,0c0,2.676,0,5.323,0,8.067
		C107.155,93.078,96.696,93.078,86.079,93.078z"/>
	<path fill="#333333" d="M166.47,112.369c0-9.176,0-18.213,0-27.353c2.883,0,5.697,0,8.639,0c0,9.109,0,18.181,0,27.353
		C172.242,112.369,169.348,112.369,166.47,112.369z"/>
	<path fill="#333333" d="M106.221,123.933c-2.947,0-5.726,0-8.628,0c0-9.011,0-17.977,0-27.078c2.817,0,5.669,0,8.628,0
		C106.221,105.854,106.221,114.821,106.221,123.933z"/>
	<path fill="#333333" d="M192.695,123.906c-8.805,0-17.461,0-26.206,0c0-2.578,0-5.082,0-7.719c8.716,0,17.406,0,26.206,0
		C192.695,118.706,192.695,121.25,192.695,123.906z"/>
	<path fill="#333333" d="M160.743,84.916c-3.96,6.756-7.762,13.239-11.708,19.971c-1.777-3.018-3.439-5.841-5.146-8.741
		c2.105-3.585,4.181-7.155,6.315-10.69c0.182-0.302,0.757-0.511,1.153-0.516C154.356,84.896,157.355,84.916,160.743,84.916z"/>
</g>
</svg>
