<?xml version="1.0" encoding="utf-8"?>
<!-- Generator: Adobe Illustrator 17.0.0, SVG Export Plug-In . SVG Version: 6.00 Build 0)  -->
<!DOCTYPE svg PUBLIC "-//W3C//DTD SVG 1.1//EN" "http://www.w3.org/Graphics/SVG/1.1/DTD/svg11.dtd">
<svg version="1.1" id="Layer_1" xmlns="http://www.w3.org/2000/svg" xmlns:xlink="http://www.w3.org/1999/xlink" x="0px" y="0px"
	 width="300px" height="200px" viewBox="0 0 300 200" enable-background="new 0 0 300 200" xml:space="preserve">
<g>
	<g>
		<path fill="#333333" d="M196.145,90.342c3.096,0,6.193-0.051,9.288,0.014c3.259,0.069,6.249,0.992,8.678,3.269
			c5.472,5.132,4.234,14.399-2.394,17.911c-2.032,1.077-4.207,1.639-6.537,1.616c-3.371-0.032-6.742,0.013-10.113,0.003
			c-0.362-0.001-0.929,0.201-1.026-0.333c-0.072-0.396,0.439-0.46,0.749-0.532c1.566-0.365,2.041-1.477,2.042-2.922
			c0.001-4.816,0.06-9.633-0.024-14.448c-0.056-3.228-2.532-4.864-5.313-3.695c-1.202,0.505-1.872,1.363-1.978,2.647
			c-0.056,0.684-0.061,1.374-0.064,2.061c-0.023,5.158-0.038,10.316-0.06,15.475c-0.002,0.481,0.005,0.968-0.073,1.439
			c-0.085,0.519-0.416,0.726-0.848,0.321c-0.449-0.422-0.848-0.9-1.247-1.372c-4.131-4.885-8.257-9.774-12.386-14.66
			c-0.355-0.42-0.717-0.835-1.088-1.242c-0.176-0.193-0.346-0.507-0.653-0.349c-0.113,0.058-0.107,0.375-0.128,0.577
			c-0.021,0.204-0.01,0.412-0.009,0.619c0.023,3.508,0.002,7.018,0.085,10.525c0.054,2.294,0.471,4.445,3.205,5.109
			c0.159,0.039,0.373,0.257,0.386,0.407c0.034,0.406-0.346,0.365-0.584,0.367c-2.339,0.013-4.678,0.01-7.017-0.006
			c-0.181-0.001-0.475-0.102-0.519-0.227c-0.12-0.341,0.195-0.498,0.446-0.559c2.63-0.632,3.116-2.659,3.142-4.914
			c0.044-3.784-0.079-7.571,0.057-11.35c0.065-1.81-0.584-3.04-2.025-3.962c-0.518-0.331-1.067-0.616-1.613-0.9
			c-0.243-0.126-0.576-0.227-0.558-0.517c0.032-0.507,0.506-0.3,0.8-0.38c0.064-0.017,0.137-0.007,0.206-0.006
			c1.858,0.008,3.76-0.256,5.563,0.084c1.466,0.277,1.341,1.214,3.707,3.889c3.248,3.644,6.323,7.442,9.472,11.174
			c0.205,0.244,0.382,0.678,0.779,0.46c0.138-0.076,0.11-0.509,0.109-0.779c-0.005-3.371,0.016-6.743-0.044-10.113
			c-0.034-1.931-0.634-3.535-2.852-3.944c-0.296-0.055-0.747-0.135-0.64-0.59c0.026-0.111,0.494-0.165,0.758-0.166
			c3.44-0.011,6.88-0.007,10.32-0.007C196.145,90.337,196.145,90.339,196.145,90.342z M200.999,101.19c0.004,0,0.008,0,0.012,0
			c0,2.882-0.047,5.765,0.016,8.646c0.045,2.042,0.74,2.66,2.775,2.747c4.002,0.171,7.05-1.908,8.338-5.684
			c0.743-2.177,0.968-4.426,0.764-6.697c-0.557-6.189-4.158-9.514-10.045-9.35c-1.754,0.049-1.836,0.1-1.853,1.898
			C200.979,95.563,200.999,98.377,200.999,101.19z"/>
		<path fill="#333333" d="M82.757,91.092c3.165-0.001,6.334-0.113,9.492,0.026c4.583,0.2,8.477,1.813,10.725,6.128
			c2.537,4.869,1.427,12.89-5.984,15.709c-1.678,0.638-3.413,0.981-5.24,0.95c-3.301-0.056-6.604,0.009-9.906,0.001
			c-0.364-0.001-0.926,0.194-1.031-0.33c-0.079-0.397,0.428-0.475,0.737-0.545c1.488-0.334,1.999-1.449,2.011-2.759
			c0.045-4.883,0.147-9.773-0.046-14.65c-0.131-3.286-2.611-4.776-5.373-3.633c-1.602,0.663-2.001,2.005-2.077,3.492
			c-0.088,1.716-0.042,3.439-0.045,5.158c-0.005,3.921,0.009,7.843-0.02,11.764c-0.004,0.559,0.322,1.375-0.416,1.61
			c-0.592,0.189-0.862-0.561-1.201-0.96c-4.363-5.138-8.705-10.293-13.081-15.42c-0.467-0.548-0.82-1.564-1.571-1.394
			c-0.377,0.085,0.003,1.242,0.003,1.916c0,3.302,0.022,6.603,0.058,9.905c0.025,2.344,0.489,4.424,3.222,5.065
			c0.161,0.038,0.381,0.249,0.398,0.399c0.045,0.412-0.338,0.371-0.576,0.373c-2.339,0.014-4.678,0.013-7.017-0.005
			c-0.23-0.002-0.626,0.049-0.573-0.372c0.019-0.151,0.241-0.36,0.403-0.397c2.65-0.613,3.126-2.725,3.192-4.917
			c0.123-4.055,0.034-8.117,0.098-12.175c0.026-1.661-1.182-2.389-2.226-3.239c-0.467-0.381-1.082-0.583-1.633-0.86
			c-0.242-0.122-0.56-0.221-0.561-0.52c-0.001-0.397,0.38-0.321,0.619-0.322c1.995-0.011,3.99,0.017,5.985-0.007
			c0.914-0.011,1.294,0.625,1.753,1.235c3.601,4.785,7.648,9.203,11.445,13.827c0.24,0.293,0.457,0.824,0.933,0.572
			c0.171-0.091,0.144-0.629,0.142-0.962c-0.019-3.164-0.017-6.328-0.093-9.491c-0.05-2.105-0.491-4.017-3.029-4.487
			c-0.167-0.031-0.423-0.225-0.431-0.355c-0.024-0.421,0.369-0.32,0.592-0.321C75.878,91.089,79.318,91.093,82.757,91.092z
			 M87.611,101.662c0,2.82-0.033,5.64,0.01,8.458c0.039,2.56,0.852,3.287,3.417,3.216c3.999-0.111,6.784-2.211,7.922-6.015
			c0.495-1.654,0.75-3.359,0.717-5.084c-0.131-7.007-3.918-10.897-10.312-10.634c-1.621,0.067-1.731,0.143-1.748,1.807
			C87.588,96.16,87.61,98.911,87.611,101.662z"/>
		<path fill="#333333" d="M244.911,102.786c0,1.721-0.093,3.448,0.023,5.161c0.152,2.231,0.404,4.488,3.174,5.158
			c0.165,0.04,0.384,0.245,0.409,0.401c0.068,0.424-0.33,0.386-0.561,0.387c-2.271,0.015-4.543,0.013-6.814-0.009
			c-0.222-0.002-0.62,0.066-0.593-0.364c0.02-0.32,0.315-0.423,0.573-0.493c2.186-0.596,2.793-2.27,2.863-4.262
			c0.134-3.781,0.09-7.573,0.384-11.341c0.195-2.494-1.139-3.81-2.931-4.979c-0.399-0.26-0.869-0.406-1.292-0.633
			c-0.173-0.092-0.374-0.242-0.264-0.485c0.043-0.096,0.204-0.193,0.313-0.196c2.267-0.05,4.539-0.185,6.799,0.081
			c0.588,0.069,0.79,0.718,1.119,1.15c3.635,4.763,7.656,9.206,11.479,13.813c0.204,0.246,0.384,0.715,0.775,0.52
			c0.312-0.155,0.214-0.612,0.21-0.944c-0.036-3.303-0.027-6.609-0.142-9.909c-0.066-1.9-0.691-3.532-2.865-3.995
			c-0.252-0.054-0.605-0.141-0.611-0.446c-0.007-0.392,0.383-0.302,0.617-0.304c2.134-0.013,4.268-0.012,6.402-0.001
			c0.248,0.001,0.61-0.056,0.668,0.278c0.059,0.338-0.291,0.442-0.539,0.502c-2.168,0.531-2.694,2.188-2.719,4.092
			c-0.06,4.611-0.055,9.224-0.075,13.836c-0.004,0.964,0.017,1.928-0.011,2.891c-0.013,0.459,0.174,1.087-0.359,1.299
			c-0.662,0.263-0.931-0.433-1.256-0.815c-4.1-4.825-8.18-9.668-12.268-14.503c-0.622-0.736-1.26-1.458-1.892-2.185
			c-0.134-0.154-0.301-0.373-0.498-0.237c-0.122,0.084-0.158,0.355-0.159,0.543c-0.011,1.996-0.007,3.992-0.007,5.989
			C244.88,102.786,244.895,102.786,244.911,102.786z"/>
		<path fill="#333333" d="M114.598,113.915c-2.822,0.001-5.644,0.003-8.466-0.003c-0.328-0.001-0.805,0.09-0.913-0.249
			c-0.141-0.442,0.357-0.521,0.66-0.591c1.786-0.409,2.136-1.699,2.13-3.284c-0.02-4.818-0.04-9.637,0.01-14.455
			c0.018-1.705-0.393-2.991-2.247-3.403c-0.261-0.058-0.567-0.187-0.561-0.501c0.008-0.392,0.386-0.288,0.626-0.332
			c0.201-0.037,0.412-0.022,0.618-0.022c5.163,0.002,10.325-0.008,15.488,0.015c1.81,0.008,1.877,0.096,1.915,1.85
			c0.026,1.238,0.007,2.478,0.002,3.717c-0.001,0.268,0.02,0.599-0.266,0.712c-0.427,0.169-0.605-0.204-0.773-0.493
			c-0.451-0.772-0.84-1.584-1.331-2.328c-1.388-2.103-6.18-3.686-8.529-2.887c-0.582,0.198-0.702,0.609-0.704,1.109
			c-0.01,2.616-0.001,5.231-0.009,7.847c-0.003,0.86,0.392,1.184,1.261,1.224c3.061,0.14,4.02-0.457,5.442-3.549
			c0.139-0.302,0.231-0.758,0.609-0.726c0.407,0.034,0.416,0.494,0.418,0.828c0.008,2.547,0.006,5.093-0.003,7.64
			c-0.001,0.341-0.03,0.76-0.448,0.808c-0.29,0.033-0.405-0.323-0.501-0.579c-0.144-0.386-0.251-0.787-0.41-1.167
			c-0.875-2.084-3.573-3.196-5.687-2.38c-0.564,0.217-0.669,0.653-0.67,1.146c-0.007,2.409-0.055,4.82,0.028,7.226
			c0.048,1.367,0.785,2.078,2.269,2.192c4.019,0.309,6.691-0.67,8.387-3.901c0.349-0.665,0.611-1.95,1.446-1.693
			c0.735,0.226,0.308,1.472,0.304,2.254c-0.028,4.572,0.605,3.916-3.898,3.97C118.728,113.935,116.663,113.914,114.598,113.915z"/>
		<path fill="#333333" d="M155.939,113.916c-2.822,0-5.644,0.003-8.466-0.004c-0.327-0.001-0.804,0.091-0.908-0.257
			c-0.136-0.452,0.371-0.513,0.672-0.578c1.661-0.354,2.167-1.481,2.162-3.034c-0.016-5.025-0.018-10.05,0.005-15.075
			c0.007-1.569-0.528-2.667-2.175-3.026c-0.306-0.067-0.797-0.161-0.664-0.601c0.106-0.353,0.581-0.259,0.904-0.259
			c5.438-0.003,10.876,0.009,16.314,0.002c0.905-0.001,1.444,0.308,1.434,1.301c-0.014,1.445,0.005,2.891-0.002,4.336
			c-0.001,0.26,0.013,0.58-0.327,0.66c-0.331,0.078-0.487-0.198-0.622-0.427c-0.246-0.414-0.496-0.831-0.686-1.271
			c-1.736-4.01-5.574-4.189-9.105-4.041c-0.727,0.03-0.88,0.544-0.88,1.147c-0.002,2.616,0.006,5.231-0.006,7.847
			c-0.004,0.875,0.402,1.174,1.263,1.211c3.193,0.134,4.178-0.463,5.507-3.494c0.133-0.305,0.171-0.814,0.53-0.794
			c0.552,0.031,0.465,0.585,0.468,0.975c0.014,2.478,0.016,4.956,0.01,7.434c-0.001,0.324,0.085,0.759-0.343,0.869
			c-0.499,0.128-0.48-0.354-0.595-0.645c-0.127-0.32-0.224-0.651-0.353-0.97c-0.897-2.218-3.549-3.356-5.801-2.52
			c-0.568,0.211-0.673,0.641-0.675,1.138c-0.007,2.34-0.064,4.683,0.024,7.02c0.06,1.595,0.852,2.331,2.502,2.449
			c3.542,0.253,6.548-0.614,8.317-4.071c0.314-0.613,0.522-1.804,1.334-1.549c0.676,0.212,0.233,1.352,0.284,2.077
			c0.058,0.822-0.04,1.655,0.024,2.476c0.098,1.258-0.435,1.711-1.678,1.686c-2.821-0.056-5.644-0.018-8.466-0.018
			C155.939,113.912,155.939,113.914,155.939,113.916z"/>
		<path fill="#333333" d="M227.945,113.913c-2.891,0-5.782,0.007-8.673-0.01c-0.291-0.002-0.766,0.153-0.81-0.334
			c-0.028-0.302,0.357-0.385,0.606-0.437c1.892-0.396,2.245-1.744,2.235-3.414c-0.03-4.818-0.036-9.637,0.004-14.455
			c0.014-1.71-0.44-2.983-2.308-3.349c-0.264-0.052-0.607-0.177-0.575-0.477c0.052-0.485,0.522-0.342,0.814-0.343
			c5.507-0.011,11.014-0.002,16.52-0.002c0.8,0,1.33,0.268,1.326,1.178c-0.008,1.514,0.009,3.029-0.005,4.543
			c-0.002,0.189-0.073,0.48-0.203,0.545c-0.288,0.147-0.515-0.087-0.661-0.322c-0.218-0.35-0.439-0.706-0.593-1.086
			c-1.256-3.104-3.785-4.242-6.888-4.324c-3.953-0.104-3.199-0.136-3.256,3.121c-0.033,1.927,0.019,3.855-0.008,5.782
			c-0.014,0.974,0.404,1.303,1.368,1.318c3.204,0.052,4.049-0.47,5.442-3.578c0.133-0.296,0.147-0.75,0.596-0.697
			c0.48,0.056,0.365,0.526,0.367,0.827c0.021,2.547,0.022,5.094,0.012,7.641c-0.001,0.31,0.097,0.763-0.404,0.783
			c-0.297,0.012-0.415-0.297-0.5-0.566c-0.083-0.262-0.176-0.522-0.279-0.776c-1.01-2.49-3.306-3.576-5.841-2.799
			c-0.577,0.177-0.74,0.562-0.74,1.08c-0.003,2.409-0.064,4.821,0.031,7.226c0.058,1.473,0.854,2.194,2.404,2.315
			c3.627,0.285,6.672-0.634,8.47-4.163c0.303-0.594,0.433-1.772,1.325-1.516c0.622,0.178,0.201,1.236,0.241,1.896
			c0.054,0.892,0.028,1.789,0.015,2.684c-0.025,1.663-0.031,1.689-1.774,1.704C233.452,113.93,230.699,113.913,227.945,113.913z"/>
		<path fill="#333333" d="M134.549,101.658c0,2.612-0.012,5.225,0.003,7.837c0.015,2.557,0.11,2.672,2.509,3.529
			c0.308,0.11,0.781,0.129,0.757,0.541c-0.027,0.472-0.516,0.338-0.814,0.339c-2.887,0.015-5.774,0.015-8.661,0
			c-0.303-0.002-0.753,0.128-0.84-0.323c-0.062-0.321,0.299-0.44,0.548-0.491c1.986-0.405,2.338-1.814,2.324-3.559
			c-0.037-4.537-0.044-9.074,0.004-13.611c0.02-1.926-0.162-3.621-2.487-4.082c-0.152-0.03-0.372-0.265-0.374-0.406
			c-0.004-0.396,0.375-0.334,0.608-0.333c3.435,0.011,6.875-0.051,10.304,0.103c1.648,0.074,3.203,0.74,4.554,1.771
			c2.96,2.259,3.373,6.622,0.81,9.296c-1.991,2.078-4.533,2.742-7.335,2.582c-0.186-0.011-0.496-0.109-0.522-0.22
			c-0.055-0.23,0.21-0.316,0.407-0.359c1.763-0.384,3.232-1.171,3.987-2.921c0.821-1.903,0.933-3.855,0.339-5.843
			c-0.654-2.187-2.387-3.615-4.614-3.868c-1.056-0.12-1.523,0.264-1.512,1.354c0.03,2.887,0.01,5.774,0.01,8.661
			C134.553,101.658,134.551,101.658,134.549,101.658z"/>
		<path fill="#333333" d="M278.353,101.679c0,2.683,0.017,5.366-0.007,8.048c-0.015,1.671,0.396,3.006,2.285,3.38
			c0.249,0.049,0.592,0.141,0.565,0.477c-0.029,0.367-0.395,0.313-0.639,0.314c-2.889,0.011-5.778,0.011-8.667-0.002
			c-0.189-0.001-0.5-0.081-0.543-0.2c-0.119-0.329,0.173-0.514,0.436-0.551c2.189-0.311,2.424-1.847,2.413-3.648
			c-0.035-5.228-0.004-10.456-0.016-15.684c-0.005-2.303-0.513-2.622-2.735-1.92c-1.504,0.475-2.42,1.518-3.04,2.883
			c-0.455,1.001-0.852,2.027-1.3,3.031c-0.103,0.232-0.243,0.551-0.594,0.443c-0.317-0.097-0.298-0.42-0.299-0.679
			c-0.006-1.72,0.013-3.439-0.003-5.159c-0.009-0.976,0.487-1.336,1.408-1.326c1.857,0.02,3.714,0.012,5.572,0.011
			c3.715-0.003,7.429-0.026,11.144-0.007c1.91,0.01,1.931,0.056,1.96,1.997c0.023,1.513,0.023,3.027,0.031,4.54
			c0.001,0.266,0.052,0.594-0.26,0.7c-0.385,0.131-0.423-0.264-0.519-0.478c-0.477-1.065-0.925-2.144-1.387-3.217
			c-0.745-1.732-2.096-2.68-3.922-2.972c-1.494-0.239-1.857,0.045-1.873,1.559C278.332,96.038,278.354,98.859,278.353,101.679z"/>
		<path fill="#333333" d="M48.193,113.906c-1.445-0.001-2.891,0.009-4.336-0.012c-0.229-0.003-0.627,0.053-0.57-0.371
			c0.02-0.146,0.255-0.353,0.416-0.377c2.417-0.362,2.532-2.129,2.524-4.02c-0.018-4.405-0.031-8.81,0.007-13.215
			c0.016-1.912-0.186-3.614-2.446-4.162c-0.157-0.038-0.376-0.256-0.38-0.395c-0.005-0.227,0.264-0.251,0.456-0.252
			c2.89-0.007,5.781-0.011,8.671-0.002c0.185,0.001,0.5,0.083,0.53,0.191c0.1,0.354-0.249,0.473-0.485,0.536
			c-1.923,0.519-2.246,1.924-2.226,3.669c0.053,4.68,0.048,9.361,0.002,14.04c-0.017,1.753,0.313,3.159,2.31,3.562
			c0.244,0.049,0.591,0.16,0.526,0.509c-0.062,0.338-0.412,0.292-0.665,0.294C51.084,113.913,49.639,113.907,48.193,113.906z"/>
	</g>
	<g>
		<path fill="#333333" d="M27.54,115.625c-7.326,0.01-13.494-5.895-13.486-13.512c0.007-7.557,6.132-13.57,13.671-13.484
			c7.416,0.084,13.439,6.167,13.328,13.715C40.944,109.67,34.958,115.642,27.54,115.625z M32.293,94.63
			c0.014,0.016,0.029,0.031,0.043,0.047c0.259,0.288,0.524,0.571,0.774,0.867c0.071,0.084,0.129,0.2,0.144,0.309
			c0.055,0.414,0.091,0.831,0.132,1.248c0.019,0.195,0.034,0.39,0.051,0.585c-0.17-0.561-0.289-1.128-0.421-1.692
			c-0.021-0.091-0.084-0.192-0.158-0.247c-0.276-0.204-0.564-0.392-0.849-0.583c-0.035-0.023-0.079-0.033-0.119-0.049
			c0.042,0.098,0.1,0.167,0.172,0.214c0.548,0.358,0.836,0.853,0.858,1.515c0.01,0.297,0.08,0.592,0.123,0.888
			c-0.023,0.004-0.045,0.009-0.068,0.013c-0.096-0.341-0.222-0.676-0.282-1.023c-0.077-0.452-0.292-0.753-0.727-0.914
			c-0.202-0.075-0.384-0.203-0.575-0.307c-0.009,0.016-0.018,0.033-0.027,0.049c0.259,0.189,0.526,0.368,0.773,0.571
			c0.093,0.077,0.174,0.201,0.204,0.317c0.087,0.347,0.147,0.701,0.215,1.053c0.041,0.216,0.077,0.433,0.115,0.649
			c-0.019,0.004-0.038,0.007-0.056,0.011c-0.106-0.308-0.211-0.617-0.317-0.925c-0.09-0.261-0.116-0.586-0.291-0.764
			c-0.181-0.185-0.506-0.23-0.77-0.33c-0.092-0.035-0.19-0.055-0.286-0.082c-0.016,0.022-0.033,0.044-0.049,0.067
			c0.762,0.164,1.076,0.673,1.142,1.383c0.014,0.147,0.073,0.289,0.109,0.434c0.039,0.161,0.074,0.323,0.111,0.484
			c-0.249-0.473-0.454-0.96-0.662-1.446c-0.028-0.066-0.064-0.169-0.113-0.18c-0.313-0.069-0.63-0.116-0.946-0.171
			c-0.004,0.018-0.007,0.036-0.011,0.054c0.215,0.077,0.433,0.145,0.641,0.237c0.076,0.034,0.157,0.113,0.185,0.189
			c0.15,0.422,0.284,0.849,0.422,1.275c0.014,0.042,0.014,0.088,0.021,0.132c-0.264-0.371-0.486-0.757-0.715-1.139
			c-0.035-0.059-0.093-0.137-0.148-0.144c-0.264-0.032-0.532-0.043-0.798-0.062c-0.011,0.025-0.023,0.05-0.034,0.075
			c0.601,0,0.833,0.393,0.997,0.866c0.046,0.133,0.124,0.255,0.182,0.384c0.034,0.076,0.057,0.157,0.085,0.236
			c-0.276-0.287-0.519-0.589-0.772-0.883c-0.051-0.059-0.142-0.117-0.215-0.116c-0.257,0.002-0.514,0.029-0.771,0.046
			c-0.012,0.02-0.024,0.04-0.035,0.06c0.655-0.09,0.942,0.33,1.201,0.789c0.007,0.013,0.019,0.023,0.026,0.037
			c0.027,0.053,0.052,0.107,0.079,0.16c-0.015,0.013-0.031,0.025-0.046,0.038c-0.051-0.035-0.105-0.067-0.153-0.106
			c-0.169-0.136-0.334-0.277-0.505-0.41c-0.049-0.038-0.121-0.086-0.172-0.077c-0.283,0.053-0.562,0.123-0.843,0.187
			c0.104,0.037,0.201,0.035,0.297,0.038c0.149,0.004,0.34-0.046,0.437,0.027c0.273,0.204,0.507,0.46,0.756,0.695
			c-0.01,0.025-0.019,0.05-0.029,0.075c-0.595-0.437-1.229-0.547-1.913-0.259c0.619-0.083,1.159,0.069,1.6,0.548
			c-0.663-0.397-1.326-0.205-1.989-0.009c0.14,0.026,0.286,0.05,0.421,0.022c0.497-0.103,0.933,0.03,1.344,0.332
			c-0.927-0.313-1.782,0.11-2.671,0.179c0.001,0.024,0.001,0.049,0.002,0.073c0.461,0.039,0.922,0.078,1.383,0.116
			c0,0.021-0.001,0.041-0.001,0.062c-0.393,0.071-0.786,0.143-1.18,0.214c0,0.01,0,0.019,0,0.029
			c0.278,0.02,0.555,0.039,0.833,0.059c0.002,0.015,0.004,0.029,0.007,0.044c-0.338,0.09-0.675,0.18-1.03,0.274
			c0.143,0.2,0.275,0.386,0.408,0.572c-0.267-0.167-0.504-0.35-0.72-0.554c-0.204-0.194-0.409-0.394-0.575-0.62
			c-0.759-1.037-1.501-2.086-2.26-3.123c-0.105-0.143-0.253-0.272-0.409-0.359c-0.43-0.24-0.876-0.451-1.312-0.68
			c-0.329-0.173-0.687-0.315-0.971-0.546c-0.602-0.49-1.165-1.028-1.738-1.552c-0.068-0.062-0.121-0.151-0.154-0.238
			c-0.14-0.362-0.268-0.728-0.404-1.092c-0.019-0.05-0.058-0.092-0.087-0.137c-0.007,0.258,0.036,0.491,0.046,0.726
			c0.025,0.574,0.182,1.094,0.537,1.554c0.159,0.206,0.281,0.44,0.418,0.663c0.028,0.046,0.047,0.097,0.071,0.146
			c-0.425-0.308-0.868-0.594-1.204-0.976c-0.33-0.375-0.55-0.846-0.802-1.249c-0.001,0.915,0.308,1.764,0.836,2.547
			c-0.632-0.456-1.274-0.885-1.615-1.615c-0.019,0.828,0.416,1.457,0.856,2.086c-0.166-0.064-0.298-0.148-0.438-0.218
			c-0.439-0.22-0.835-0.489-1.079-0.933c-0.011,0.005-0.021,0.009-0.032,0.014c0.012-0.006,0.023-0.012,0.035-0.019
			c0.112,0.324,0.202,0.659,0.344,0.969c0.085,0.186,0.25,0.336,0.412,0.542c-0.208-0.032-0.354-0.054-0.553-0.085
			c0.378,0.356,0.716,0.676,1.081,1.019c-0.335,0-0.625,0-0.955,0c0.456,0.283,0.881,0.547,1.305,0.811
			c-0.005,0.015-0.011,0.03-0.016,0.045c-0.18,0.017-0.36,0.034-0.539,0.051c-0.002,0.012-0.004,0.023-0.006,0.035
			c0.489,0.188,0.977,0.377,1.511,0.583c-0.227,0.088-0.406,0.157-0.642,0.249c1.255,0.093,2.441,0.181,3.628,0.269
			c-0.001,0.023-0.003,0.046-0.004,0.069c-0.661,0-1.322,0-1.983,0c-0.012,0.14-0.022,0.257-0.032,0.376c0.843,0,1.673,0,2.504,0
			c-0.074,0.029-0.151,0.048-0.229,0.057c-0.46,0.049-0.921,0.093-1.381,0.148c-0.067,0.008-0.163,0.057-0.182,0.11
			c-0.041,0.113-0.041,0.242-0.06,0.384c0.771-0.103,1.517-0.202,2.263-0.301c0.003,0.02,0.006,0.04,0.009,0.06
			c-0.42,0.095-0.839,0.19-1.259,0.286c-0.498,0.114-0.498,0.114-0.495,0.628c0,0.007,0.006,0.014,0.015,0.034
			c0.831-0.226,1.664-0.453,2.497-0.68c-0.033,0.063-0.08,0.084-0.128,0.103c-0.562,0.221-1.121,0.451-1.688,0.658
			c-0.181,0.066-0.284,0.136-0.235,0.345c0.018,0.074,0.003,0.157,0.003,0.26c0.804-0.334,1.578-0.655,2.351-0.976
			c0.009,0.02,0.019,0.04,0.028,0.06c-0.624,0.338-1.247,0.676-1.871,1.014c0.029,0.178,0.054,0.336,0.082,0.511
			c0.74-0.375,1.452-0.736,2.165-1.097c0.012,0.021,0.023,0.041,0.035,0.062c-0.058,0.041-0.114,0.085-0.174,0.123
			c-0.466,0.297-0.931,0.595-1.401,0.886c-0.11,0.068-0.166,0.136-0.11,0.268c0.034,0.081,0.048,0.17,0.075,0.266
			c0.761-0.416,1.507-0.824,2.252-1.232c0.011,0.018,0.021,0.037,0.032,0.055c-0.573,0.384-1.146,0.767-1.721,1.152
			c0.065,0.164,0.12,0.306,0.18,0.459c0.581-0.341,1.14-0.669,1.699-0.998c0.017,0.016,0.035,0.032,0.052,0.048
			c-0.343,0.26-0.686,0.52-1.034,0.784c0.077,0.152,0.145,0.288,0.22,0.437c0.293-0.177,0.566-0.341,0.838-0.506
			c0.015,0.021,0.029,0.042,0.044,0.062c-0.082,0.063-0.163,0.126-0.25,0.194c0.066,0.132,0.121,0.242,0.174,0.349
			c0.883-0.268,1.052-0.308,1.405-0.971c-0.007,0.078-0.018,0.156-0.047,0.226c-0.139,0.334-0.379,0.571-0.715,0.701
			c-1.001,0.387-2.006,0.764-3.005,1.154c-0.102,0.04-0.207,0.12-0.266,0.21c-0.553,0.851-1.096,1.708-1.641,2.563
			c-0.035,0.054-0.063,0.113-0.095,0.173c0.033,0.017,0.066,0.039,0.069,0.035c0.636-0.718,1.271-1.438,1.905-2.158
			c0.013,0.015,0.026,0.029,0.039,0.044c-0.34,0.514-0.681,1.028-1.038,1.568c0.186-0.03,0.339-0.073,0.493-0.076
			c0.183-0.004,0.276-0.101,0.367-0.242c0.239-0.37,0.492-0.731,0.738-1.095c0.067-0.099,0.133-0.198,0.199-0.296
			c0.016,0.01,0.032,0.02,0.049,0.031c-0.253,0.501-0.506,1.002-0.76,1.507c0.036,0.012,0.049,0.021,0.062,0.02
			c0.045-0.002,0.09-0.016,0.133-0.01c0.377,0.055,0.577-0.124,0.7-0.471c0.1-0.282,0.259-0.542,0.393-0.812
			c0.026,0.01,0.053,0.02,0.079,0.03c-0.13,0.394-0.259,0.787-0.394,1.198c0.158-0.007,0.291-0.023,0.424-0.017
			c0.202,0.01,0.3-0.064,0.352-0.274c0.099-0.402,0.237-0.795,0.359-1.192c0.015,0.003,0.03,0.007,0.045,0.01
			c-0.077,0.463-0.155,0.926-0.234,1.404c0.258-0.052,0.482-0.097,0.708-0.142c0.054-0.434,0.106-0.852,0.158-1.269
			c0.017,0.001,0.034,0.002,0.051,0.002c0,0.384,0,0.767,0,1.19c0.12-0.064,0.198-0.121,0.285-0.151
			c0.219-0.075,0.259-0.224,0.224-0.434c-0.032-0.195-0.034-0.395-0.05-0.593c0.087,0.184,0.102,0.383,0.177,0.556
			c0.11,0.256,0.261,0.493,0.396,0.738c0.009,0.016,0.04,0.018,0.057,0.031c0.21,0.151,0.42,0.302,0.63,0.453
			c-0.017,0.015-0.034,0.03-0.051,0.046c-0.079-0.007-0.165-0.038-0.237-0.018c-0.99,0.279-1.978,0.565-3.012,0.862
			c0.365,0.21,0.688,0.395,1.011,0.58c0.304,0.175,0.612,0.343,0.91,0.528c0.244,0.152,0.295,0.357,0.166,0.56
			c0.016-0.295-0.042-0.391-0.314-0.515c-0.156-0.071-0.324-0.123-0.468-0.213c-0.461-0.287-0.921-0.313-1.412-0.074
			c-0.163,0.079-0.32,0.134-0.327,0.344c-0.007,0.213,0.123,0.324,0.307,0.391c0.477,0.173,0.954,0.345,1.431,0.519
			c0.309,0.113,0.617,0.109,0.917-0.021c0.932-0.403,1.862-0.811,2.672-1.442c0.224-0.174,0.458-0.335,0.687-0.502
			c0.018,0.012,0.037,0.025,0.055,0.037c-0.188,0.21-0.377,0.42-0.546,0.608c0.452-0.193,0.957-0.387,1.442-0.621
			c0.485-0.234,0.95-0.509,1.424-0.766c0.009,0.013,0.018,0.026,0.027,0.038c-0.134,0.126-0.269,0.252-0.419,0.393
			c0.557-0.062,1.075-0.128,1.595-0.174c0.439-0.039,0.88-0.044,1.318-0.083c0.293-0.026,0.495-0.203,0.544-0.427
			c0.052-0.237-0.072-0.467-0.338-0.624c-0.257-0.152-0.533-0.278-0.769-0.458c-0.436-0.332-0.883-0.414-1.414-0.25
			c-0.459,0.142-0.941,0.205-1.425,0.306c0.2,0.263,0.205,0.287,0.125,0.455c-0.224-0.392-0.307-0.445-0.527-0.329
			c0.132,0.115,0.227,0.241,0.153,0.434c-0.097-0.124-0.17-0.247-0.272-0.338c-0.188-0.169-0.383-0.336-0.594-0.474
			c-0.355-0.233-0.259-0.593-0.273-0.914c-0.009-0.222,0.039-0.446,0.061-0.67c-0.018-0.004-0.035-0.009-0.053-0.013
			c-0.222,0.195-0.443,0.39-0.665,0.585c-0.013-0.015-0.026-0.029-0.039-0.044c0.746-0.878,1.491-1.757,2.258-2.659
			c-0.254-0.053-0.467-0.097-0.679-0.141c0.281-0.04,0.555-0.041,0.829-0.04c0.183,0.001,0.36-0.013,0.532,0.109
			c0.097,0.069,0.257,0.048,0.446,0.076c-0.113-0.192-0.187-0.318-0.289-0.49c0.12-0.015,0.24-0.069,0.302-0.03
			c0.176,0.11,0.238,0.291,0.179,0.501c0.371-0.061,0.554-0.367,0.405-0.683c-0.053-0.112-0.143-0.208-0.227-0.302
			c-0.137-0.153-0.281-0.282-0.301-0.522c-0.011-0.132-0.136-0.313-0.257-0.367c-0.553-0.246-1.082-0.576-1.726-0.547
			c-0.37,0.017-0.742,0.003-1.113,0.003c0.462-0.108,0.927-0.16,1.391-0.222c0.082-0.011,0.179-0.045,0.235-0.102
			c0.253-0.256,0.557-0.413,0.892-0.533c0.393-0.141,0.774-0.313,1.165-0.46c0.198-0.074,0.314-0.2,0.386-0.4
			c0.273-0.758,0.557-1.512,0.842-2.265c0.041-0.11,0.099-0.218,0.168-0.312c0.624-0.849,1.253-1.694,1.88-2.54
			c0.041-0.056,0.081-0.113,0.121-0.169c-0.013-0.013-0.027-0.025-0.04-0.038c-0.434,0.309-0.868,0.618-1.302,0.927
			c-0.012-0.012-0.024-0.023-0.035-0.035c0.146-0.304,0.292-0.608,0.437-0.912c-0.015-0.008-0.029-0.016-0.044-0.024
			c-0.249,0.354-0.497,0.708-0.746,1.062c-0.013-0.005-0.026-0.01-0.039-0.015c0.02-0.34,0.041-0.68,0.061-1.02
			c-0.018-0.002-0.036-0.005-0.053-0.007c-0.09,0.349-0.18,0.698-0.271,1.048c-0.016-0.001-0.032-0.003-0.047-0.004
			c-0.151-0.369-0.302-0.737-0.453-1.106c0.072,0.714,0.426,1.391,0.198,2.135c0.016-0.76-0.513-1.264-0.844-1.862
			c0.077,0.256,0.193,0.495,0.29,0.742c0.1,0.254,0.215,0.509,0.262,0.775c0.045,0.252,0.01,0.517,0.01,0.777
			c-0.058-0.121-0.071-0.246-0.095-0.368c-0.036-0.189-0.029-0.41-0.129-0.557c-0.256-0.374-0.561-0.715-0.846-1.069
			c-0.025-0.014-0.049-0.028-0.074-0.043c-0.006,0.008-0.011,0.017-0.017,0.025c0.019,0.018,0.038,0.035,0.057,0.053
			c0.112,0.176,0.214,0.36,0.339,0.526c0.286,0.377,0.483,0.774,0.446,1.269c-0.024,0.326-0.005,0.656-0.005,0.985
			c-0.085-0.453-0.145-0.909-0.212-1.364c-0.01-0.07-0.03-0.152-0.076-0.2c-0.327-0.347-0.662-0.686-0.995-1.028
			c-0.015-0.015-0.031-0.029-0.046-0.044c-0.015-0.013-0.029-0.025-0.044-0.038c0.004,0.023,0.008,0.047,0.012,0.07
			c0.011,0.014,0.022,0.029,0.033,0.043c0.257,0.339,0.515,0.676,0.77,1.016c0.044,0.058,0.101,0.124,0.107,0.19
			c0.053,0.66,0.096,1.321,0.142,1.981c-0.052-0.072-0.072-0.149-0.086-0.228c-0.088-0.514-0.172-1.029-0.265-1.542
			c-0.015-0.081-0.056-0.173-0.116-0.226c-0.324-0.287-0.657-0.563-0.987-0.842c-0.014-0.012-0.027-0.025-0.041-0.037
			c-0.019-0.013-0.038-0.026-0.057-0.038c-0.027-0.024-0.054-0.049-0.08-0.073c-0.008,0.008-0.015,0.015-0.023,0.023
			c0.027,0.025,0.054,0.05,0.081,0.075C32.264,94.599,32.279,94.615,32.293,94.63z M31.754,95.021
			c-0.008,0.012-0.016,0.024-0.024,0.037c0.044,0.018,0.087,0.037,0.131,0.055c0.005-0.012,0.01-0.024,0.015-0.037
			C31.835,95.058,31.795,95.039,31.754,95.021z"/>
		<path fill="#333333" d="M29.635,107.97c-0.22-0.387-0.28-0.428-0.554-0.354c0.137,0.124,0.257,0.252,0.195,0.448
			c-0.246-0.257-0.491-0.497-0.716-0.755c-0.078-0.089-0.131-0.214-0.156-0.331c-0.07-0.319-0.119-0.642-0.186-1.023
			c0.076,0.065,0.114,0.09,0.141,0.123c0.163,0.195,0.327,0.389,0.484,0.588c0.129,0.163,0.247,0.277,0.493,0.307
			c0.248,0.03,0.475,0.229,0.749,0.374c-0.227,0.06-0.41,0.109-0.599,0.159C29.695,107.728,29.713,107.787,29.635,107.97z"/>
		<path fill="#333333" d="M21.646,98.312c-0.197-0.038-0.395-0.072-0.592-0.114c-0.67-0.144-1.341-0.287-2.01-0.44
			c-0.094-0.022-0.191-0.079-0.263-0.144c-0.369-0.334-0.731-0.676-1.095-1.015c0.027-0.03,0.055-0.061,0.082-0.091
			c0.099,0.079,0.208,0.148,0.297,0.238c0.595,0.602,1.312,0.952,2.141,1.111c0.445,0.085,0.878,0.234,1.316,0.354
			c0.046,0.013,0.091,0.031,0.137,0.046C21.654,98.275,21.65,98.294,21.646,98.312z"/>
		<path fill="#333333" d="M18.377,95.872c0.342,0.319,0.68,0.642,1.027,0.956c0.085,0.077,0.191,0.142,0.299,0.179
			c0.678,0.228,1.359,0.445,2.038,0.667c0.047,0.015,0.092,0.035,0.129,0.091c-0.053-0.005-0.107-0.003-0.158-0.016
			c-0.722-0.183-1.445-0.365-2.164-0.558c-0.106-0.028-0.218-0.096-0.291-0.178c-0.279-0.31-0.544-0.634-0.814-0.953
			c-0.041-0.048-0.074-0.102-0.111-0.153C18.347,95.895,18.362,95.884,18.377,95.872z"/>
		<path fill="#333333" d="M17.976,97.999c1.282,0.264,2.564,0.528,3.846,0.792c-0.005,0.026-0.011,0.053-0.016,0.079
			c-1.282-0.268-2.623-0.244-3.845-0.815C17.967,98.036,17.971,98.017,17.976,97.999z"/>
		<path fill="#333333" d="M20.131,94.684c0.322,0.428,0.639,0.86,0.968,1.283c0.074,0.095,0.18,0.178,0.288,0.233
			c0.486,0.244,0.979,0.475,1.469,0.712c0.042,0.021,0.082,0.047,0.105,0.109c-0.052-0.013-0.105-0.02-0.154-0.039
			c-0.543-0.209-1.086-0.416-1.627-0.632c-0.077-0.031-0.157-0.09-0.201-0.158c-0.291-0.46-0.573-0.926-0.858-1.391
			c-0.017-0.028-0.026-0.062-0.039-0.092C20.099,94.7,20.115,94.692,20.131,94.684z"/>
		<path fill="#333333" d="M19.293,95.41c0.264,0.282,0.521,0.571,0.797,0.842c0.123,0.121,0.273,0.229,0.431,0.299
			c0.497,0.22,1.003,0.42,1.505,0.628c0.049,0.02,0.095,0.048,0.129,0.109c-0.046-0.009-0.094-0.013-0.138-0.027
			c-0.595-0.195-1.189-0.392-1.782-0.59c-0.055-0.018-0.125-0.037-0.156-0.079c-0.284-0.378-0.561-0.761-0.84-1.143
			C19.256,95.436,19.275,95.423,19.293,95.41z"/>
		<path fill="#333333" d="M22.058,99.402c-1.016-0.119-2.056-0.078-3.02-0.545c1.01,0.158,2.02,0.316,3.031,0.474
			C22.066,99.355,22.062,99.379,22.058,99.402z"/>
		<path fill="#333333" d="M26.74,109.341c1.052-0.377,2.103-0.754,3.155-1.132c0.012,0.033,0.024,0.066,0.036,0.1
			c-1.051,0.377-2.103,0.754-3.154,1.131C26.764,109.407,26.752,109.374,26.74,109.341z"/>
		<path fill="#333333" d="M26.08,108.993c0.771-0.254,1.542-0.509,2.313-0.763c0.012,0.035,0.023,0.071,0.035,0.106
			c-0.773,0.254-1.546,0.508-2.319,0.762C26.1,109.063,26.09,109.028,26.08,108.993z"/>
		<path fill="#333333" d="M34.349,107.455c-0.697,0.103-1.394,0.206-2.091,0.31c-0.005-0.033-0.01-0.067-0.015-0.1
			c0.696-0.104,1.392-0.208,2.087-0.313C34.337,107.386,34.343,107.421,34.349,107.455z"/>
		<path fill="#333333" d="M25.964,110.456c-0.395-0.062-0.775-0.14-1.106-0.346c0.002-0.026,0.005-0.052,0.007-0.077
			c0.23-0.067,0.46-0.134,0.69-0.202c0.007,0.014,0.013,0.028,0.02,0.042c-0.12,0.067-0.24,0.134-0.381,0.213
			C25.461,110.214,25.713,110.335,25.964,110.456z"/>
		<path fill="#333333" d="M23.848,97.963c-0.422,0.262-0.843,0.523-1.293,0.802c0-0.174,0-0.321,0-0.467
			c0.011-0.003,0.021-0.006,0.032-0.009c0.022,0.068,0.044,0.135,0.075,0.229c0.398-0.208,0.784-0.41,1.171-0.612
			C23.838,97.925,23.843,97.944,23.848,97.963z"/>
		<path fill="#333333" d="M23.397,99.906c0-0.189,0-0.33,0-0.471c0.011-0.002,0.023-0.004,0.034-0.006
			c0.022,0.064,0.043,0.128,0.076,0.224c0.367-0.188,0.73-0.374,1.093-0.561c0.01,0.019,0.02,0.038,0.031,0.056
			C24.232,99.393,23.833,99.638,23.397,99.906z"/>
		<path fill="#333333" d="M25.172,99.644c-0.367,0.229-0.735,0.458-1.131,0.704c0-0.178,0-0.325,0-0.472
			c0.009-0.003,0.017-0.005,0.026-0.008c0.023,0.07,0.046,0.141,0.077,0.234c0.337-0.173,0.668-0.342,0.999-0.511
			C25.152,99.608,25.162,99.626,25.172,99.644z"/>
		<path fill="#333333" d="M22.889,99.389c0-0.152,0-0.255,0-0.304c0.115-0.019,0.217-0.014,0.298-0.054
			c0.278-0.137,0.548-0.289,0.821-0.436c0.012,0.02,0.024,0.041,0.036,0.061C23.672,98.892,23.3,99.128,22.889,99.389z"/>
		<path fill="#333333" d="M32.129,107.315c0.498-0.093,0.996-0.186,1.493-0.28c0.006,0.033,0.012,0.065,0.019,0.098
			c-0.499,0.095-0.997,0.19-1.496,0.285C32.139,107.384,32.134,107.35,32.129,107.315z"/>
		<path fill="#333333" d="M25.732,100.141c-0.33,0.208-0.66,0.415-1.018,0.641c0-0.176,0-0.323,0-0.469
			c0.012-0.002,0.024-0.004,0.035-0.006c0.024,0.074,0.047,0.148,0.073,0.229c0.296-0.15,0.585-0.295,0.874-0.441
			C25.709,100.11,25.721,100.126,25.732,100.141z"/>
		<path fill="#333333" d="M22.389,98.063c0-0.188,0-0.326,0-0.464c0.01-0.003,0.02-0.006,0.03-0.008
			c0.026,0.07,0.052,0.14,0.084,0.225c0.29-0.146,0.578-0.292,0.866-0.438c0.009,0.017,0.019,0.033,0.028,0.05
			C23.073,97.632,22.748,97.837,22.389,98.063z"/>
		<path fill="#333333" d="M31.666,107.875c-0.388,0.089-0.777,0.177-1.165,0.266c-0.008-0.032-0.015-0.064-0.023-0.096
			c0.388-0.091,0.777-0.183,1.165-0.274C31.651,107.806,31.659,107.84,31.666,107.875z"/>
		<path fill="#333333" d="M26.13,100.715c-0.24,0.154-0.48,0.307-0.745,0.477c0-0.177,0-0.316,0-0.455
			c0.01-0.001,0.021-0.003,0.031-0.004c0.023,0.067,0.045,0.134,0.072,0.213c0.214-0.097,0.417-0.191,0.621-0.284
			C26.117,100.68,26.123,100.697,26.13,100.715z"/>
		<path fill="#333333" d="M29.205,103.069c-0.118,0.16-0.236,0.321-0.354,0.481c-0.011-0.006-0.021-0.012-0.032-0.019
			c0.012-0.077,0.023-0.154,0.036-0.241c-0.083-0.019-0.16-0.037-0.237-0.055c-0.001-0.013-0.003-0.026-0.004-0.039
			c0.189-0.055,0.378-0.111,0.567-0.166C29.189,103.043,29.197,103.056,29.205,103.069z"/>
		<path fill="#333333" d="M29.054,104.449c0.008-0.077,0.016-0.154,0.026-0.244c-0.086-0.015-0.162-0.028-0.239-0.042
			c-0.003-0.012-0.007-0.025-0.01-0.037c0.188-0.063,0.376-0.126,0.564-0.189c0.009,0.014,0.017,0.028,0.026,0.041
			c-0.11,0.162-0.221,0.324-0.331,0.485C29.078,104.458,29.066,104.453,29.054,104.449z"/>
		<path fill="#333333" d="M28.611,102.606c0.02-0.075,0.04-0.149,0.061-0.231c-0.08-0.033-0.151-0.062-0.285-0.116
			c0.256-0.038,0.447-0.067,0.708-0.105c-0.182,0.191-0.316,0.332-0.45,0.473C28.634,102.62,28.623,102.613,28.611,102.606z"/>
		<path fill="#333333" d="M30.143,102.282c-0.041,0.066-0.056,0.098-0.079,0.125c-0.099,0.117-0.201,0.232-0.346,0.399
			c0.022-0.138,0.033-0.21,0.046-0.295c-0.071-0.023-0.138-0.045-0.206-0.067c-0.002-0.013-0.004-0.026-0.006-0.039
			C29.737,102.366,29.921,102.328,30.143,102.282z"/>
		<path fill="#333333" d="M33.425,102.709c0.097-0.434-0.315-0.48-0.531-0.761c0.091,0,0.157-0.021,0.192,0.003
			C33.473,102.221,33.582,102.456,33.425,102.709z"/>
		<path fill="#333333" d="M32.674,101.539c0.062,0.127,0.01,0.242-0.115,0.267c-0.081,0.016-0.22-0.043-0.267-0.113
			c-0.074-0.109-0.02-0.222,0.117-0.276c0.022,0.086,0.042,0.166,0.062,0.245C32.532,101.625,32.594,101.588,32.674,101.539z"/>
		<path fill="#333333" d="M26.378,101.686c0.202,0.252,0.357-0.106,0.554,0.009c-0.194,0.12-0.377,0.233-0.601,0.371
			C26.35,101.907,26.364,101.8,26.378,101.686z"/>
		<path fill="#333333" d="M25.923,101.613c0.008-0.173,0.012-0.275,0.019-0.425c0.053,0.082,0.081,0.126,0.114,0.178
			c0.138-0.057,0.278-0.115,0.419-0.173c0.008,0.015,0.016,0.031,0.025,0.046C26.319,101.356,26.138,101.473,25.923,101.613z"/>
		<path fill="#333333" d="M30.944,101.774c-0.163,0.127-0.282,0.22-0.39,0.304c-0.026-0.103-0.051-0.201-0.077-0.304
			C30.589,101.774,30.736,101.774,30.944,101.774z"/>
		<path fill="#333333" d="M28.268,103.822c-0.091,0.122-0.183,0.243-0.263,0.351c-0.054-0.091-0.105-0.177-0.164-0.278
			c0.097-0.028,0.247-0.072,0.397-0.116C28.248,103.793,28.258,103.808,28.268,103.822z"/>
		<path fill="#333333" d="M28.565,104.615c-0.103,0.119-0.205,0.238-0.346,0.401c0.022-0.117,0.033-0.174,0.047-0.244
			c-0.055-0.024-0.113-0.049-0.219-0.094c0.192-0.043,0.342-0.077,0.492-0.111C28.547,104.583,28.556,104.599,28.565,104.615z"/>
		<path fill="#333333" d="M29.846,103.395c-0.064-0.021-0.117-0.038-0.169-0.056c0-0.013,0-0.026,0-0.038
			c0.152-0.033,0.304-0.065,0.519-0.111c-0.133,0.165-0.229,0.283-0.35,0.433C29.846,103.529,29.846,103.471,29.846,103.395z"/>
		<path fill="#333333" d="M27.077,102.178c-0.153,0.108-0.307,0.216-0.512,0.36c0.016-0.131,0.026-0.21,0.03-0.246
			c0.172-0.054,0.317-0.1,0.462-0.146C27.065,102.157,27.071,102.168,27.077,102.178z"/>
		<path fill="#333333" d="M30.698,107.187c0.307,0,0.438,0.16,0.373,0.446C30.95,107.489,30.826,107.341,30.698,107.187z"/>
		<path fill="#333333" d="M28.865,108.165c-0.123-0.142-0.249-0.287-0.368-0.425C28.761,107.69,28.934,107.881,28.865,108.165z"/>
		<path fill="#333333" d="M28.167,102.986c-0.136,0.163-0.229,0.274-0.316,0.379c-0.049-0.089-0.095-0.174-0.151-0.277
			C27.806,103.065,27.954,103.033,28.167,102.986z"/>
		<path fill="#333333" d="M28.346,101.449c0.118,0,0.269,0,0.478,0c-0.156,0.125-0.275,0.221-0.377,0.303
			C28.411,101.646,28.378,101.546,28.346,101.449z"/>
		<path fill="#333333" d="M29.506,101.867c0.02-0.052,0.04-0.104,0.067-0.175c-0.048-0.028-0.099-0.058-0.196-0.115
			c0.205,0,0.354,0,0.56,0c-0.159,0.125-0.279,0.219-0.4,0.314C29.527,101.883,29.517,101.875,29.506,101.867z"/>
		<path fill="#333333" d="M32.636,102.434c-0.233-0.075-0.315,0.048-0.344,0.254c-0.122-0.137-0.095-0.253,0.015-0.339
			C32.429,102.254,32.549,102.279,32.636,102.434z"/>
		<path fill="#333333" d="M27.204,104.555c-0.028-0.09-0.051-0.166-0.082-0.266c0.095-0.005,0.214-0.012,0.333-0.018
			c0.008,0.014,0.017,0.028,0.025,0.042C27.388,104.394,27.295,104.475,27.204,104.555z"/>
		<path fill="#333333" d="M30.625,102.911c-0.037-0.077-0.072-0.149-0.116-0.241c0.115-0.008,0.234-0.016,0.388-0.026
			C30.788,102.751,30.706,102.832,30.625,102.911z"/>
		<path fill="#333333" d="M30.132,104.387c-0.047-0.09-0.085-0.161-0.128-0.244c0.106-0.018,0.228-0.038,0.413-0.069
			C30.291,104.212,30.209,104.303,30.132,104.387z"/>
		<path fill="#333333" d="M27.97,102.322c-0.081,0.086-0.162,0.171-0.245,0.26c-0.034-0.081-0.065-0.154-0.106-0.251
			c0.088-0.015,0.21-0.036,0.332-0.056C27.958,102.29,27.964,102.306,27.97,102.322z"/>
		<path fill="#333333" d="M29.522,105.093c-0.055-0.092-0.098-0.163-0.143-0.239c0.107-0.018,0.229-0.038,0.417-0.069
			C29.674,104.922,29.594,105.011,29.522,105.093z"/>
		<path fill="#333333" d="M26.671,103.078c0.02-0.149,0.03-0.222,0.036-0.263c0.121-0.019,0.223-0.034,0.389-0.06
			C26.94,102.873,26.828,102.958,26.671,103.078z"/>
		<path fill="#333333" d="M30.632,101.04c-0.141,0.11-0.235,0.182-0.321,0.249c-0.027-0.084-0.053-0.163-0.081-0.249
			C30.33,101.04,30.451,101.04,30.632,101.04z"/>
		<path fill="#333333" d="M27.761,104.957c-0.131,0.102-0.222,0.174-0.316,0.247c-0.022-0.085-0.042-0.162-0.063-0.247
			C27.464,104.957,27.585,104.957,27.761,104.957z"/>
		<path fill="#333333" d="M25.645,102.947c0.07-0.043,0.139-0.087,0.209-0.13c0.01,0.016,0.019,0.031,0.029,0.047
			c-0.062,0.044-0.124,0.088-0.186,0.131C25.68,102.98,25.663,102.963,25.645,102.947z"/>
		<path fill="#333333" d="M30.276,108.969c0.055-0.047,0.11-0.094,0.164-0.141c0.011,0.014,0.023,0.029,0.034,0.043
			c-0.057,0.048-0.113,0.097-0.17,0.145C30.295,109.001,30.285,108.985,30.276,108.969z"/>
		<path fill="#333333" d="M27.942,107.96c0.016,0.025,0.031,0.05,0.047,0.075c-0.033-0.01-0.065-0.02-0.098-0.029
			C27.908,107.99,27.925,107.975,27.942,107.96z"/>
		<path fill="#333333" d="M23.3,106.25c0.02-0.014,0.041-0.028,0.061-0.042c-0.007,0.029-0.015,0.058-0.022,0.086
			C23.326,106.279,23.313,106.265,23.3,106.25z"/>
		<path fill="#333333" d="M30.304,109.016c-0.006,0.012-0.015,0.021-0.027,0.027c-0.018-0.012-0.037-0.025-0.055-0.037
			c0.018-0.012,0.036-0.025,0.053-0.037C30.285,108.985,30.295,109.001,30.304,109.016z"/>
	</g>
</g>
</svg>
