<?xml version="1.0" encoding="utf-8"?>
<!-- Generator: Adobe Illustrator 17.0.0, SVG Export Plug-In . SVG Version: 6.00 Build 0)  -->
<!DOCTYPE svg PUBLIC "-//W3C//DTD SVG 1.1//EN" "http://www.w3.org/Graphics/SVG/1.1/DTD/svg11.dtd">
<svg version="1.1" id="Layer_1" xmlns="http://www.w3.org/2000/svg" xmlns:xlink="http://www.w3.org/1999/xlink" x="0px" y="0px"
	 width="300px" height="200px" viewBox="0 0 300 200" enable-background="new 0 0 300 200" xml:space="preserve">
<g>
	<path fill="#333333" d="M95.049,104.542c0,3.89,0.036,7.781-0.016,11.671c-0.023,1.737-0.297,3.452-1.115,5.034
		c-1.381,2.668-3.585,4.296-6.546,4.427c-5.313,0.234-10.64,0.361-15.956,0.251c-3.773-0.078-7.566-0.539-11.087-2.067
		c-2.282-0.99-4.493-2.111-6.444-3.748c-1.802-1.512-3.359-3.217-4.626-5.149c-2.024-3.084-3.383-6.462-3.808-10.169
		c-0.142-1.235-0.49-2.471-0.447-3.695c0.068-1.903,0.35-3.803,0.615-5.694c0.39-2.784,1.535-5.343,2.931-7.706
		c1.16-1.963,2.628-3.754,4.412-5.321c1.777-1.56,3.662-2.866,5.775-3.805c2.599-1.155,5.277-2.102,8.199-2.188
		c2.982-0.088,5.959-0.342,8.939-0.509c0.394-0.022,0.793,0.039,1.31,0.069c0,2.127,0,4.197,0,6.398
		c-0.461,0.035-0.891,0.093-1.322,0.095c-1.791,0.011-3.583,0.028-5.375,0.001c-4.117-0.062-7.939,0.903-11.39,3.199
		c-1.921,1.278-3.487,2.931-4.712,4.855c-1.474,2.315-2.518,4.864-2.833,7.595c-0.32,2.78-0.261,5.583,0.571,8.309
		c2.017,6.609,6.36,10.804,13.076,12.436c1.542,0.375,3.169,0.529,4.76,0.551c4.926,0.069,9.857-0.094,14.778,0.073
		c2.707,0.092,3.949-1.848,3.988-3.95c0.011-0.582,0.011-1.164,0.011-1.747c0.001-8.913,0.001-17.826,0.001-26.739
		c0-0.403-0.086-0.833,0.027-1.202c0.142-0.464,0.342-1.063,0.706-1.269c0.55-0.311,1.133,0.028,1.489,0.564
		c0.738,1.112,1.471,2.228,2.177,3.36c3.163,5.07,6.319,10.145,9.47,15.222c2.845,4.585,5.673,9.181,8.53,13.759
		c0.37,0.594,0.768,1.262,1.328,1.629c1.867,1.225,3.928,0.174,4.202-2.074c0.049-0.398,0.024-0.805,0.024-1.208
		c0.001-9.495,0-18.99,0-28.485c0-0.493-0.115-1.027,0.038-1.467c0.172-0.494,0.554-1.231,0.908-1.27
		c0.498-0.054,1.277,0.295,1.552,0.72c1.94,2.991,3.778,6.049,5.657,9.08c2.444,3.942,4.892,7.881,7.345,11.816
		c2.334,3.745,4.676,7.485,7.02,11.225c0.237,0.378,0.477,0.759,0.763,1.098c0.766,0.909,1.968,1.275,2.978,0.942
		c1.09-0.36,1.874-1.396,1.954-2.602c0.021-0.312,0.003-0.627,0.003-0.94c0.001-12.72,0.003-25.44,0.004-38.16
		c0-0.567,0-1.135,0-1.796c2.227,0,4.267,0,6.471,0c0.034,0.477,0.097,0.948,0.097,1.419c0.005,12.899,0.05,25.798-0.037,38.697
		c-0.016,2.415-0.308,4.871-1.836,6.984c-1.215,1.68-2.819,2.711-4.773,3.163c-1.846,0.427-3.685,0.354-5.517-0.341
		c-2.574-0.977-4.458-2.72-5.902-4.977c-1.538-2.404-3-4.857-4.489-7.292c-1.836-3.003-3.665-6.01-5.503-9.011
		c-0.064-0.105-0.194-0.169-0.426-0.363c0,0.585,0,1.053,0,1.521c0,3.897-0.005,7.793,0.002,11.69
		c0.003,1.767-0.302,3.443-1.196,5.005c-1.203,2.102-2.996,3.283-5.345,3.798c-3.231,0.708-6.04-0.237-8.444-2.268
		c-1.265-1.069-2.311-2.477-3.206-3.89c-2.696-4.252-5.271-8.58-7.89-12.88c-0.551-0.905-1.087-1.821-1.629-2.731
		C95.213,104.504,95.131,104.523,95.049,104.542z"/>
	<path fill="#333333" d="M136.912,98.538c0-7.494,0-14.988,0-22.647c1.956,0,3.779-0.024,5.598,0.031
		c0.219,0.007,0.52,0.407,0.613,0.682c0.11,0.323,0.038,0.708,0.038,1.066c0.001,12.632,0.001,25.264,0.003,37.896
		c0,0.848,0.086,1.72-0.948,2.4c-0.374-0.334-0.889-0.628-1.17-1.07c-2.415-3.8-4.79-7.626-7.175-11.445
		c-2.43-3.892-4.864-7.781-7.286-11.677c-1.763-2.835-3.504-5.685-5.271-8.518c-0.376-0.603-0.785-1.194-1.243-1.737
		c-0.881-1.043-2.074-0.971-3.217-0.672c-1.086,0.285-1.467,1.233-1.612,2.252c-0.069,0.484-0.035,0.984-0.036,1.476
		c-0.002,9.541-0.004,19.082-0.001,28.623c0,1.042-0.068,2.042-1.176,2.763c-0.451-0.415-0.976-0.729-1.265-1.191
		c-3.262-5.218-6.478-10.464-9.725-15.691c-2.73-4.394-5.487-8.77-8.226-13.158c-0.707-1.133-1.339-2.318-2.097-3.415
		c-0.694-1.006-1.517-1.855-2.935-1.811c-1.636,0.051-2.603,0.844-2.783,2.476c-0.044,0.399-0.016,0.806-0.016,1.209
		c0,9.272,0,18.545-0.001,27.817c0,0.403,0.055,0.818-0.02,1.207c-0.354,1.829-0.617,2.272-2.469,2.256
		c-4.837-0.04-9.676,0.044-14.513-0.026c-8.11-0.118-14.667-4.8-16.389-13.004c-1.048-4.993-0.165-9.685,2.945-13.948
		c2.495-3.42,5.859-5.312,9.828-6.099c2.293-0.455,4.711-0.3,7.074-0.384c1.202-0.043,2.407-0.007,3.739-0.007
		c0,2.102,0,4.084,0,6.213c-0.479,0.033-0.953,0.091-1.427,0.094c-1.971,0.011-3.942-0.001-5.913,0.007
		c-5.063,0.021-9.855,4.084-10.307,9.499c-0.435,5.208,2.781,9.867,8.204,11.024c3.559,0.759,7.192,0.675,10.808,0.53
		c1.335-0.054,1.861-0.765,1.862-2.246c0.005-7.973-0.041-15.947,0.029-23.92c0.027-3.107,1.084-5.784,3.655-7.824
		c2.922-2.319,7.898-2.242,11.109,0.184c1.95,1.473,3.261,3.387,4.457,5.433c2.942,5.035,5.879,10.074,8.976,15.381
		c0-0.729,0-1.191,0-1.653c0-3.763-0.053-7.526,0.022-11.288c0.042-2.102,0.419-4.131,1.646-5.969
		c2.075-3.109,5.719-4.219,8.741-3.704c3.022,0.516,5.387,2.161,7.015,4.72c2.128,3.346,4.14,6.767,6.165,10.177
		c1.52,2.559,2.984,5.152,4.473,7.73C136.767,98.568,136.839,98.553,136.912,98.538z"/>
	<path fill="#333333" d="M239.596,125.911c-2.363,0-4.619,0-7.003,0c-0.027-0.588-0.072-1.11-0.072-1.632
		c-0.004-4.523,0.011-9.045-0.011-13.568c-0.003-0.704-0.106-1.423-0.27-2.109c-0.369-1.542-1.618-2.478-3.202-2.481
		c-1.783-0.004-3.51,1.083-4.032,2.749c-0.354,1.13-0.606,2.34-0.628,3.519c-0.076,3.984-0.029,7.97-0.029,11.955
		c0,0.482,0,0.964,0,1.549c-2.312,0-4.479,0-6.765,0c0-8.191,0-16.357,0-24.657c2.108,0,4.215,0,6.429,0
		c0.044,0.824,0.086,1.603,0.148,2.759c1.997-2.655,4.592-3.663,7.437-3.594c2.779,0.068,5.498,0.722,6.848,3.684
		c0.899-0.765,1.686-1.63,2.645-2.216c3.509-2.144,7.093-1.934,10.587,0.034c1.491,0.84,2.448,2.221,2.779,3.922
		c0.254,1.301,0.492,2.63,0.508,3.949c0.06,4.791,0.024,9.582,0.024,14.373c0,0.533,0,1.065,0,1.724c-2.389,0-4.677,0-7.146,0
		c0-0.571,0-1.093,0-1.616c0-4.478,0.011-8.956-0.01-13.433c-0.003-0.661-0.139-1.324-0.246-1.981
		c-0.295-1.827-1.61-2.619-3.285-2.718c-1.783-0.105-3.697,1.104-4.038,2.631c-0.309,1.382-0.542,2.809-0.571,4.22
		c-0.077,3.805-0.024,7.612-0.03,11.418C239.665,124.871,239.623,125.35,239.596,125.911z"/>
	<path fill="#333333" d="M189.127,113.582c0.005-2.918,0.489-5.668,2.244-8.076c2.226-3.054,5.223-4.665,9.006-4.958
		c1.959-0.152,3.864-0.092,5.752,0.443c4.244,1.203,7.034,3.901,8.113,8.188c0.967,3.84,0.91,7.688-0.984,11.259
		c-2.069,3.902-5.505,5.823-9.864,6.095c-2.742,0.171-5.383-0.149-7.915-1.425c-3.249-1.638-5-4.351-5.911-7.692
		C189.234,116.189,189.264,114.863,189.127,113.582z M196.267,113.201c0.158,1.272,0.202,2.3,0.424,3.289
		c0.596,2.655,2.361,4.235,4.564,4.485c2.929,0.333,4.922-1.057,5.825-3.446c0.924-2.446,1.088-5.051,0.139-7.562
		c-0.367-0.971-0.879-2.046-1.65-2.675c-2.775-2.263-7.276-1.519-8.595,2.365C196.566,110.856,196.466,112.16,196.267,113.201z"/>
	<path fill="#333333" d="M186.905,110.051c-2.302,0-4.569,0-6.938,0c-0.107-0.243-0.28-0.549-0.379-0.878
		c-0.579-1.939-2.043-3.064-4.02-3.065c-2.795-0.001-4.073,0.83-5.057,3.464c-1.038,2.779-1.098,5.578,0.159,8.324
		c0.835,1.823,2.093,3.127,4.268,3.094c2.296-0.034,3.82-1.246,4.755-3.274c0.22-0.478,0.381-0.983,0.579-1.5
		c2.192,0,4.33,0,6.649,0c0,0.476,0.08,0.914-0.013,1.311c-0.847,3.619-2.729,6.435-6.236,7.996
		c-2.755,1.227-5.599,1.246-8.505,0.77c-2.564-0.421-4.661-1.669-6.42-3.533c-1.804-1.911-2.835-4.246-3.068-6.801
		c-0.292-3.211-0.046-6.387,1.484-9.381c0.906-1.772,2.202-3.114,3.773-4.208c2.152-1.498,4.691-2.019,7.216-2.004
		c3.335,0.019,6.567,0.794,9.07,3.237c1.321,1.29,2.077,2.969,2.482,4.776C186.82,108.893,186.834,109.429,186.905,110.051z"/>
	<path fill="#333333" d="M157.364,126.539c-2.674-0.011-4.047-1.587-4.158-4.436c-0.098-2.505,1.967-4.058,4.189-4.015
		c2.649,0.052,4.482,1.42,4.355,4.383C161.642,124.986,160.046,126.55,157.364,126.539z"/>
</g>
</svg>
